<svg width="1366" height="226" xmlns="http://www.w3.org/2000/svg">

 <g>
  <title>background</title>
  <rect fill="none" id="canvas_background" height="402" width="582" y="-1" x="-1"/>
 </g>
 <g>
  <title>Layer 1</title>
  <g id="svg_1">
   <g id="svg_2">
    <path fill="#ffffff" stroke-width="0" id="svg_3" d="m100.68,49.33c5.7,0 12.19,0.63 19.48,1.89c7.29,1.26 13.78,2.95 19.48,5.07l0,29.62l-13.12,0l-6.96,-19.28c-6.36,-1.85 -12.39,-2.78 -18.09,-2.78c-6.89,0 -13.16,1.09 -18.79,3.28c-5.63,2.19 -10.44,5.6 -14.41,10.24c-3.97,4.63 -7.05,10.73 -9.24,18.28s-3.28,16.44 -3.28,26.64c0,19.35 4.01,33.86 12.03,43.54c8.02,9.67 19.58,14.51 34.69,14.51c7.16,0 13.32,-0.86 18.49,-2.59l0,-39.55l-16.9,-4.97l0,-8.95l50.3,0l0,8.95l-10.74,4.97l0,46.12c-6.5,3.58 -13.55,6.3 -21.17,8.15c-7.62,1.85 -14.94,2.78 -21.97,2.78c-9.68,0 -18.69,-1.36 -27.04,-4.08c-8.35,-2.72 -15.64,-6.96 -21.87,-12.72c-6.23,-5.76 -11.13,-13.35 -14.71,-22.76c-3.58,-9.41 -5.37,-20.34 -5.37,-32.8c0,-11 1.56,-21.07 4.67,-30.22c3.11,-9.15 7.65,-16.93 13.62,-23.36c5.96,-6.43 13.25,-11.36 21.87,-14.81c8.62,-3.44 18.3,-5.17 29.03,-5.17z"/>
    <path fill="#ffffff" stroke-width="0" id="svg_4" d="m332.35,51.12l44.53,128.23l14.91,4.97l0,8.95l-55.07,0l0,-8.95l16.1,-4.97l-8.95,-27.04l-51.49,0l-10.14,27.04l14.12,4.97l0,8.95l-45.73,0l0,-8.95l13.92,-4.97l51.69,-128.23l16.11,0zm6.96,87.28l-19.48,-59.24l-22.26,59.24l41.74,0z"/>
    <path fill="#ffffff" stroke-width="0" id="svg_5" d="m548.45,51.12l0,8.95l-15.11,4.97l0,127.43l-17.29,2.78l-77.34,-109.74l0,93.84l14.91,4.97l0,8.95l-45.33,0l0,-8.95l14.91,-4.97l0,-114.31l-14.91,-4.97l0,-8.95l32.4,0l77.34,108.94l0,-95.02l-14.91,-4.97l0,-8.95l45.33,0z"/>
    <path fill="#ffffff" stroke-width="0" id="svg_6" d="m637.11,49.33c5.57,0 12.06,0.63 19.48,1.89c7.42,1.26 14.05,2.95 19.88,5.07l0,29.62l-13.12,0l-6.96,-19.28c-6.36,-1.85 -12.39,-2.78 -18.09,-2.78c-6.76,0 -12.96,1.09 -18.59,3.28c-5.64,2.19 -10.47,5.6 -14.51,10.24c-4.04,4.64 -7.16,10.74 -9.34,18.29c-2.19,7.55 -3.28,16.44 -3.28,26.64c0,19.88 4.08,34.53 12.23,43.94c8.15,9.41 19.71,14.11 34.69,14.11c9.01,0 17.16,-1.85 24.45,-5.57l4.37,-19.09l13.12,0l0,28.03c-13.39,7.69 -28.56,11.53 -45.52,11.53c-9.94,0 -19.09,-1.49 -27.44,-4.47s-15.51,-7.49 -21.47,-13.52c-5.96,-6.03 -10.57,-13.62 -13.82,-22.76c-3.25,-9.15 -4.87,-19.61 -4.87,-31.41c0,-11.4 1.62,-21.73 4.87,-31.01c3.25,-9.28 7.88,-17.06 13.92,-23.36c6.03,-6.29 13.32,-11.1 21.87,-14.41c8.55,-3.32 17.92,-4.98 28.13,-4.98z"/>
    <path fill="#ffffff" stroke-width="0" id="svg_7" d="m775.08,51.12l44.53,128.23l14.91,4.97l0,8.95l-55.07,0l0,-8.95l16.1,-4.97l-8.95,-27.04l-51.49,0l-10.14,27.04l14.12,4.97l0,8.95l-45.73,0l0,-8.95l13.92,-4.97l51.69,-128.23l16.11,0zm6.95,87.28l-19.48,-59.24l-22.26,59.24l41.74,0z"/>
    <path fill="#ffffff" stroke-width="0" id="svg_8" d="m900.72,49.33c5.57,0 12.06,0.66 19.48,1.99c7.42,1.33 13.58,3.05 18.49,5.17l0,32.4l-13.92,0l-6.96,-22.07c-6.63,-2.12 -12.46,-3.18 -17.5,-3.18c-3.71,0 -7.59,0.56 -11.63,1.69c-4.04,1.13 -7.39,3.18 -10.04,6.16c-2.65,2.98 -3.98,6.53 -3.98,10.64c0,5.17 1.69,9.74 5.07,13.72s11.5,9.14 24.35,15.51c14.71,7.16 24.95,13.82 30.71,19.98c5.76,6.16 8.65,13.49 8.65,21.97c0,12.72 -4.47,22.86 -13.42,30.42c-8.95,7.55 -21.04,11.33 -36.28,11.33c-6.63,0 -13.85,-0.86 -21.67,-2.58c-7.82,-1.72 -14.85,-4.04 -21.07,-6.96l0,-33.99l13.92,0l7.36,24.25c3.44,1.46 7.16,2.65 11.13,3.58c3.98,0.93 7.36,1.39 10.14,1.39c8.08,0 14.71,-1.89 19.88,-5.67c5.17,-3.78 7.75,-8.71 7.75,-14.81c0,-6.89 -2.62,-12.46 -7.85,-16.7c-5.24,-4.24 -13.82,-9.21 -25.74,-14.91c-12.33,-5.7 -21.21,-11.83 -26.64,-18.39c-5.44,-6.56 -8.15,-14.34 -8.15,-23.36c0,-11.53 4.31,-20.68 12.92,-27.43c8.62,-6.77 20.29,-10.15 35,-10.15z"/>
    <path fill="#ffffff" stroke-width="0" id="svg_9" d="m1084.21,51.12l0,35.78l-11.53,0l-6.36,-23.06l-32.6,0l0,115.51l16.1,4.97l0,8.95l-54.87,0l0,-8.95l16.1,-4.97l0,-115.5l-32.41,0l-6.56,23.06l-11.53,0l0,-35.79l123.66,0z"/>
    <path fill="#ffffff" stroke-width="0" id="svg_10" d="m1155.98,51.12l0,8.95l-16.1,4.97l0,115.5l43.14,0l10.14,-30.81l11.73,0l0,43.54l-102.59,0l0,-8.95l14.91,-4.97l0,-114.31l-14.91,-4.97l0,-8.95l53.68,0z"/>
    <path fill="#ffffff" stroke-width="0" id="svg_11" d="m1329.93,51.12l0,34.19l-11.33,0l-6.36,-21.47l-47.12,0l0,52.29l28.63,0l3.98,-13.52l10.14,0l0,38.57l-10.14,0l-3.98,-13.52l-28.63,0l0,52.88l51.29,0l6.76,-21.47l11.33,0l0,34.19l-106.95,0l0,-8.95l14.91,-4.97l0,-114.3l-14.91,-4.97l0,-8.95l102.38,0z"/>
   </g>
   <g id="svg_12">
    <path fill="#ffffff" stroke-width="0" id="svg_13" d="m176.48,72.5l0,120.39l54.06,0l0,-120.39l-54.06,0zm22.01,33.72l0,-4.74l0,-1.39c0,-2.61 2.13,-4.74 4.74,-4.74s4.74,2.13 4.74,4.74l0,1.39l0,4.74l0,4.74l-9.48,0l0,-4.74zm1.12,36.51l0,4.74l0,4.74l-9.48,0l0,-4.74l0,-4.74l0,-1.39c0,-2.61 2.13,-4.74 4.74,-4.74c2.61,0 4.74,2.13 4.74,4.74l0,1.39zm0,-19.51l0,4.74l0,4.74l-9.48,0l0,-4.74l0,-4.74l0,-1.39c0,-2.61 2.13,-4.74 4.74,-4.74c2.61,0 4.74,2.13 4.74,4.74l0,1.39zm17.27,19.51l0,4.74l0,4.74l-9.48,0l0,-4.74l0,-4.74l0,-1.39c0,-2.61 2.13,-4.74 4.74,-4.74s4.74,2.13 4.74,4.74l0,1.39zm0,-19.51l0,4.74l0,4.74l-9.48,0l0,-4.74l0,-4.74l0,-1.39c0,-2.61 2.13,-4.74 4.74,-4.74s4.74,2.13 4.74,4.74l0,1.39z"/>
    <polygon fill="#ffffff" stroke-width="0" id="svg_14" points="227.75,53 227.75,60.24 223.41,60.24 223.41,53 216.72,53 216.72,60.24 212.37,60.24 212.37,53 205.68,53     205.68,60.24 201.33,60.24 201.33,53 194.65,53 194.65,60.24 190.3,60.24 190.3,53 183.61,53 183.61,60.24 179.26,60.24     179.26,53 172.57,53 172.57,60.24 172.57,70.83 179.26,70.83 183.61,70.83 190.3,70.83 194.65,70.83 201.33,70.83 205.68,70.83     212.37,70.83 216.72,70.83 223.41,70.83 227.75,70.83 234.44,70.83 234.44,60.24 234.44,53   "/>
    <path fill="#ffffff" stroke-width="0" id="svg_15" d="m223.26,36.64c0,0 8.78,0 9.75,-4.88c0,0 -4.88,1.95 -8.78,0.98c-3.57,-0.89 -15.29,-4.23 -19.51,0.44l0,-2.39l-1.95,0l0,31.52l1.95,0l0,-16.75c1.36,-1.79 4.4,-4 10.73,-2.1c9.75,2.93 17.56,-0.98 17.56,-3.9c0.01,0 -10.72,1.96 -9.75,-2.92z"/>
   </g>
  </g>
 </g>
</svg>