<?xml version="1.0" encoding="utf-8"?>
<!-- Generator: Adobe Illustrator 23.1.0, SVG Export Plug-In . SVG Version: 6.00 Build 0)  -->
<svg version="1.1" id="Layer_1" xmlns="http://www.w3.org/2000/svg" xmlns:xlink="http://www.w3.org/1999/xlink" x="0px" y="0px"
	 viewBox="0 0 1366 226" style="enable-background:new 0 0 1366 226;" xml:space="preserve">
<g>
	<g>
		<path d="M100.68,49.33c5.7,0,12.19,0.63,19.48,1.89c7.29,1.26,13.78,2.95,19.48,5.07v29.62h-13.12l-6.96-19.28
			c-6.36-1.85-12.39-2.78-18.09-2.78c-6.89,0-13.16,1.09-18.79,3.28c-5.63,2.19-10.44,5.6-14.41,10.24
			C64.3,82,61.22,88.1,59.03,95.65s-3.28,16.44-3.28,26.64c0,19.35,4.01,33.86,12.03,43.54c8.02,9.67,19.58,14.51,34.69,14.51
			c7.16,0,13.32-0.86,18.49-2.59V138.2l-16.9-4.97v-8.95h50.3v8.95l-10.74,4.97v46.12c-6.5,3.58-13.55,6.3-21.17,8.15
			c-7.62,1.85-14.94,2.78-21.97,2.78c-9.68,0-18.69-1.36-27.04-4.08c-8.35-2.72-15.64-6.96-21.87-12.72
			c-6.23-5.76-11.13-13.35-14.71-22.76c-3.58-9.41-5.37-20.34-5.37-32.8c0-11,1.56-21.07,4.67-30.22
			c3.11-9.15,7.65-16.93,13.62-23.36c5.96-6.43,13.25-11.36,21.87-14.81C80.27,51.06,89.95,49.33,100.68,49.33z"/>
		<path d="M332.35,51.12l44.53,128.23l14.91,4.97v8.95h-55.07v-8.95l16.1-4.97l-8.95-27.04h-51.49l-10.14,27.04l14.12,4.97v8.95
			h-45.73v-8.95l13.92-4.97l51.69-128.23H332.35z M339.31,138.4l-19.48-59.24l-22.26,59.24H339.31z"/>
		<path d="M548.45,51.12v8.95l-15.11,4.97v127.43l-17.29,2.78L438.71,85.51v93.84l14.91,4.97v8.95h-45.33v-8.95l14.91-4.97V65.04
			l-14.91-4.97v-8.95h32.4l77.34,108.94V65.04l-14.91-4.97v-8.95H548.45z"/>
		<path d="M637.11,49.33c5.57,0,12.06,0.63,19.48,1.89c7.42,1.26,14.05,2.95,19.88,5.07v29.62h-13.12l-6.96-19.28
			c-6.36-1.85-12.39-2.78-18.09-2.78c-6.76,0-12.96,1.09-18.59,3.28c-5.64,2.19-10.47,5.6-14.51,10.24
			c-4.04,4.64-7.16,10.74-9.34,18.29c-2.19,7.55-3.28,16.44-3.28,26.64c0,19.88,4.08,34.53,12.23,43.94
			c8.15,9.41,19.71,14.11,34.69,14.11c9.01,0,17.16-1.85,24.45-5.57l4.37-19.09h13.12v28.03c-13.39,7.69-28.56,11.53-45.52,11.53
			c-9.94,0-19.09-1.49-27.44-4.47s-15.51-7.49-21.47-13.52c-5.96-6.03-10.57-13.62-13.82-22.76c-3.25-9.15-4.87-19.61-4.87-31.41
			c0-11.4,1.62-21.73,4.87-31.01c3.25-9.28,7.88-17.06,13.92-23.36c6.03-6.29,13.32-11.1,21.87-14.41
			C617.53,50.99,626.9,49.33,637.11,49.33z"/>
		<path d="M775.08,51.12l44.53,128.23l14.91,4.97v8.95h-55.07v-8.95l16.1-4.97l-8.95-27.04h-51.49l-10.14,27.04l14.12,4.97v8.95
			h-45.73v-8.95l13.92-4.97l51.69-128.23H775.08z M782.03,138.4l-19.48-59.24l-22.26,59.24H782.03z"/>
		<path d="M900.72,49.33c5.57,0,12.06,0.66,19.48,1.99c7.42,1.33,13.58,3.05,18.49,5.17v32.4h-13.92l-6.96-22.07
			c-6.63-2.12-12.46-3.18-17.5-3.18c-3.71,0-7.59,0.56-11.63,1.69c-4.04,1.13-7.39,3.18-10.04,6.16c-2.65,2.98-3.98,6.53-3.98,10.64
			c0,5.17,1.69,9.74,5.07,13.72s11.5,9.14,24.35,15.51c14.71,7.16,24.95,13.82,30.71,19.98c5.76,6.16,8.65,13.49,8.65,21.97
			c0,12.72-4.47,22.86-13.42,30.42c-8.95,7.55-21.04,11.33-36.28,11.33c-6.63,0-13.85-0.86-21.67-2.58
			c-7.82-1.72-14.85-4.04-21.07-6.96v-33.99h13.92l7.36,24.25c3.44,1.46,7.16,2.65,11.13,3.58c3.98,0.93,7.36,1.39,10.14,1.39
			c8.08,0,14.71-1.89,19.88-5.67c5.17-3.78,7.75-8.71,7.75-14.81c0-6.89-2.62-12.46-7.85-16.7c-5.24-4.24-13.82-9.21-25.74-14.91
			c-12.33-5.7-21.21-11.83-26.64-18.39c-5.44-6.56-8.15-14.34-8.15-23.36c0-11.53,4.31-20.68,12.92-27.43
			C874.34,52.71,886.01,49.33,900.72,49.33z"/>
		<path d="M1084.21,51.12v35.78h-11.53l-6.36-23.06h-32.6v115.51l16.1,4.97v8.95h-54.87v-8.95l16.1-4.97V63.85h-32.41l-6.56,23.06
			h-11.53V51.12H1084.21z"/>
		<path d="M1155.98,51.12v8.95l-16.1,4.97v115.5h43.14l10.14-30.81h11.73v43.54H1102.3v-8.95l14.91-4.97V65.04l-14.91-4.97v-8.95
			H1155.98z"/>
		<path d="M1329.93,51.12v34.19h-11.33l-6.36-21.47h-47.12v52.29h28.63l3.98-13.52h10.14v38.57h-10.14l-3.98-13.52h-28.63v52.88
			h51.29l6.76-21.47h11.33v34.19h-106.95v-8.95l14.91-4.97V65.04l-14.91-4.97v-8.95H1329.93z"/>
	</g>
	<g>
		<path d="M176.48,72.5v120.39h54.06V72.5H176.48z M198.49,106.22v-4.74v-1.39c0-2.61,2.13-4.74,4.74-4.74s4.74,2.13,4.74,4.74v1.39
			v4.74v4.74h-9.48V106.22z M199.61,142.73v4.74v4.74h-9.48v-4.74v-4.74v-1.39c0-2.61,2.13-4.74,4.74-4.74
			c2.61,0,4.74,2.13,4.74,4.74V142.73z M199.61,123.22v4.74v4.74h-9.48v-4.74v-4.74v-1.39c0-2.61,2.13-4.74,4.74-4.74
			c2.61,0,4.74,2.13,4.74,4.74V123.22z M216.88,142.73v4.74v4.74h-9.48v-4.74v-4.74v-1.39c0-2.61,2.13-4.74,4.74-4.74
			s4.74,2.13,4.74,4.74V142.73z M216.88,123.22v4.74v4.74h-9.48v-4.74v-4.74v-1.39c0-2.61,2.13-4.74,4.74-4.74s4.74,2.13,4.74,4.74
			V123.22z"/>
		<polygon points="227.75,53 227.75,60.24 223.41,60.24 223.41,53 216.72,53 216.72,60.24 212.37,60.24 212.37,53 205.68,53 
			205.68,60.24 201.33,60.24 201.33,53 194.65,53 194.65,60.24 190.3,60.24 190.3,53 183.61,53 183.61,60.24 179.26,60.24 
			179.26,53 172.57,53 172.57,60.24 172.57,70.83 179.26,70.83 183.61,70.83 190.3,70.83 194.65,70.83 201.33,70.83 205.68,70.83 
			212.37,70.83 216.72,70.83 223.41,70.83 227.75,70.83 234.44,70.83 234.44,60.24 234.44,53 		"/>
		<path d="M223.26,36.64c0,0,8.78,0,9.75-4.88c0,0-4.88,1.95-8.78,0.98c-3.57-0.89-15.29-4.23-19.51,0.44v-2.39h-1.95v31.52h1.95
			V45.56c1.36-1.79,4.4-4,10.73-2.1c9.75,2.93,17.56-0.98,17.56-3.9C233.02,39.56,222.29,41.52,223.26,36.64z"/>
	</g>
</g>
</svg>
